<svg width="212" height="42" viewBox="0 0 212 42" fill="none" xmlns="http://www.w3.org/2000/svg">
<path d="M36.7 33.6H25.6L30.2 12L18.35 33.6H11.55L9.3 11.25L4.5 33.6H0L6.75 1.85H19.5L21.05 19.75L30.65 1.85H43.5L36.7 33.6ZM45.7875 13.95C47.4875 13.1167 49.2208 12.5167 50.9875 12.15C52.7875 11.75 54.7875 11.55 56.9875 11.55C59.1208 11.55 60.8875 11.7167 62.2875 12.05C63.6875 12.3833 64.8042 12.8667 65.6375 13.5C66.4708 14.1333 67.0542 14.8833 67.3875 15.75C67.7208 16.6167 67.8875 17.6 67.8875 18.7C67.8875 19.3333 67.8375 20.0167 67.7375 20.75C67.6708 21.4833 67.5875 22.1 67.4875 22.6L65.1375 33.6H57.0875L56.1875 30.4H55.8875C54.8208 31.5667 53.5708 32.4667 52.1375 33.1C50.7375 33.7 49.3375 34 47.9375 34C47.1375 34 46.3542 33.8833 45.5875 33.65C44.8208 33.4167 44.1375 33.0667 43.5375 32.6C42.9375 32.1 42.4542 31.4833 42.0875 30.75C41.7208 29.9833 41.5375 29.0667 41.5375 28C41.5375 26.2667 42.0042 24.9 42.9375 23.9C43.9042 22.8667 45.1542 22.1 46.6875 21.6C48.2542 21.0667 50.0042 20.7333 51.9375 20.6C53.9042 20.4667 55.8708 20.4 57.8375 20.4C57.9042 20.0667 57.9875 19.6 58.0875 19C58.1875 18.3667 58.2375 17.8167 58.2375 17.35C58.2375 16.75 58.0708 16.2 57.7375 15.7C57.4375 15.1667 56.7875 14.9 55.7875 14.9C54.6208 14.9 53.7542 15.25 53.1875 15.95C52.6542 16.6167 52.3042 17.4333 52.1375 18.4H44.8375L45.7875 13.95ZM57.2875 22.75H56.3875C55.4208 22.75 54.5875 22.8833 53.8875 23.15C53.2208 23.3833 52.6708 23.7 52.2375 24.1C51.8375 24.5 51.5375 24.95 51.3375 25.45C51.1375 25.95 51.0375 26.45 51.0375 26.95C51.0375 27.75 51.2375 28.35 51.6375 28.75C52.0708 29.15 52.5708 29.35 53.1375 29.35C53.8375 29.35 54.5208 29.1 55.1875 28.6C55.8875 28.1 56.3208 27.4333 56.4875 26.6L57.2875 22.75ZM73.8254 12.1H81.9754L82.7254 15.85H83.0754C83.8421 14.65 84.8254 13.6333 86.0254 12.8C87.2254 11.9667 88.8087 11.55 90.7754 11.55C90.9087 11.55 91.1087 11.5667 91.3754 11.6C91.6754 11.6 91.9921 11.65 92.3254 11.75C92.6921 11.8167 93.0587 11.9333 93.4254 12.1C93.8254 12.2333 94.2087 12.4333 94.5754 12.7L92.3754 23H86.9254C86.8587 20.9333 86.6754 19.5 86.3754 18.7C86.0754 17.8667 85.5921 17.45 84.9254 17.45C84.5921 17.45 84.2254 17.5333 83.8254 17.7C83.4587 17.8333 83.0754 18.15 82.6754 18.65L79.4754 33.6H69.2754L73.8254 12.1ZM106.295 21.2L117.945 12.1H124.545L114.595 20.25L122.045 33.6H110.845L105.745 23.55L103.645 33.6H93.4453L100.545 3.57628e-06H110.795L106.295 21.2ZM133.41 23.55C133.276 24.2833 133.176 24.9833 133.11 25.65C133.076 26.3167 133.06 26.9167 133.06 27.45C133.06 27.75 133.076 28.0833 133.11 28.45C133.143 28.8167 133.21 29.1667 133.31 29.5C133.443 29.8 133.61 30.0667 133.81 30.3C134.043 30.5 134.36 30.6 134.76 30.6C135.06 30.6 135.393 30.5 135.76 30.3C136.16 30.1 136.543 29.8167 136.91 29.45C137.31 29.0833 137.676 28.6333 138.01 28.1C138.376 27.5667 138.66 26.9667 138.86 26.3H147.06L145.76 31.65C145.093 32.0833 144.326 32.45 143.46 32.75C142.593 33.05 141.676 33.3 140.71 33.5C139.743 33.6667 138.76 33.7833 137.76 33.85C136.76 33.95 135.81 34 134.91 34C133.243 34 131.693 33.85 130.26 33.55C128.826 33.25 127.576 32.7333 126.51 32C125.443 31.2667 124.593 30.3 123.96 29.1C123.36 27.8667 123.06 26.35 123.06 24.55C123.06 22.9167 123.31 21.3167 123.81 19.75C124.343 18.1833 125.21 16.8 126.41 15.6C127.643 14.3667 129.276 13.3833 131.31 12.65C133.376 11.9167 135.943 11.55 139.01 11.55C142.343 11.55 144.843 12.0667 146.51 13.1C148.21 14.1333 149.06 15.75 149.06 17.95C149.06 18.85 148.926 19.8333 148.66 20.9C148.393 21.9333 147.993 22.8167 147.46 23.55H133.41ZM140.06 17.6C140.06 16.5667 139.893 15.8667 139.56 15.5C139.226 15.1333 138.826 14.95 138.36 14.95C137.826 14.95 137.326 15.1333 136.86 15.5C136.426 15.8333 136.026 16.3 135.66 16.9C135.293 17.4667 134.96 18.1333 134.66 18.9C134.36 19.6333 134.11 20.4167 133.91 21.25H139.61C139.676 20.85 139.743 20.4333 139.81 20C139.876 19.6333 139.926 19.2333 139.96 18.8C140.026 18.3667 140.06 17.9667 140.06 17.6ZM151.909 12.1C153.143 11.8333 154.226 11.5333 155.159 11.2C156.093 10.8667 156.943 10.45 157.709 9.95001C158.509 9.45 159.259 8.83334 159.959 8.1C160.693 7.36667 161.476 6.46667 162.309 5.40001H167.459L166.009 12.1H169.909L169.259 15.45H165.309L163.259 25.2C163.093 25.9667 162.959 26.65 162.859 27.25C162.759 27.85 162.709 28.3167 162.709 28.65C162.709 29.3167 162.943 29.7333 163.409 29.9C163.909 30.0667 164.826 30.15 166.159 30.15L165.409 33.6C165.176 33.6667 164.809 33.7167 164.309 33.75C163.843 33.7833 163.309 33.8167 162.709 33.85C162.143 33.9167 161.543 33.95 160.909 33.95C160.309 33.9833 159.776 34 159.309 34C158.476 34 157.659 33.9333 156.859 33.8C156.059 33.7 155.343 33.4833 154.709 33.15C154.076 32.7833 153.559 32.2667 153.159 31.6C152.793 30.9333 152.609 30.0333 152.609 28.9C152.609 28.5 152.626 28 152.659 27.4C152.726 26.8 152.843 26.1333 153.009 25.4L155.109 15.45H151.209L151.909 12.1ZM178.889 33.6H168.689L175.789 3.57628e-06H186.039L178.889 33.6ZM196.388 12.1L197.888 26.8L205.788 12.1H211.088L199.038 33.6C197.838 35.7 196.621 37.3167 195.388 38.45C194.155 39.5833 192.805 40.4167 191.338 40.95C189.905 41.4833 188.305 41.7833 186.538 41.85C184.805 41.95 182.821 42 180.588 42L181.338 38.55C182.438 38.55 183.455 38.5333 184.388 38.5C185.355 38.4667 186.121 38.3667 186.688 38.2C187.455 38 188.005 37.6333 188.338 37.1C188.671 36.6 188.838 35.85 188.838 34.85C188.838 34.1833 188.771 33.4167 188.638 32.55C188.538 31.6833 188.421 30.7667 188.288 29.8L185.838 12.1H196.388Z" fill="#F0DC00"/>
</svg>
